<svg width="153" height="56" viewBox="0 0 153 56" fill="none" xmlns="http://www.w3.org/2000/svg">
<path d="M7.63 16.24L28 28.0233L48.37 16.24" stroke="#555555" stroke-width="3" stroke-linecap="round" stroke-linejoin="round"/>
<path d="M28 51.52V28" stroke="#555555" stroke-width="3" stroke-linecap="round" stroke-linejoin="round"/>
<path d="M49 37.3333V18.6667C48.9992 17.8483 48.7831 17.0446 48.3736 16.336C47.964 15.6275 47.3754 15.0392 46.6667 14.63L30.3333 5.29666C29.6239 4.88708 28.8192 4.67145 28 4.67145C27.1808 4.67145 26.3761 4.88708 25.6667 5.29666L9.33333 14.63C8.62461 15.0392 8.03595 15.6275 7.62641 16.336C7.21687 17.0446 7.00084 17.8483 7 18.6667V37.3333C7.00084 38.1517 7.21687 38.9554 7.62641 39.6639C8.03595 40.3725 8.62461 40.9608 9.33333 41.37L25.6667 50.7033C26.3761 51.1129 27.1808 51.3285 28 51.3285C28.8192 51.3285 29.6239 51.1129 30.3333 50.7033L46.6667 41.37C47.3754 40.9608 47.964 40.3725 48.3736 39.6639C48.7831 38.9554 48.9992 38.1517 49 37.3333Z" stroke="#8200FA" stroke-width="5" stroke-linecap="round" stroke-linejoin="round"/>
<path d="M70.9375 20.4545H75.8523L79.233 28.6932H79.4034L82.7841 20.4545H87.6989V35H83.8352V26.5909H83.7216L80.483 34.8864H78.1534L74.9148 26.5341H74.8011V35H70.9375V20.4545ZM92.0135 39.0909C91.5637 39.0909 91.1352 39.0554 90.728 38.9844C90.3208 38.9181 89.9633 38.8258 89.6555 38.7074L90.5078 35.9233C90.8298 36.0369 91.1233 36.1103 91.3885 36.1435C91.6584 36.1766 91.888 36.1577 92.0774 36.0866C92.2715 36.0156 92.4112 35.8807 92.4964 35.6818L92.5817 35.483L88.7464 24.0909H92.8374L94.5987 31.6477H94.7124L96.5021 24.0909H100.621L96.6442 35.9091C96.4453 36.5104 96.1565 37.0502 95.7777 37.5284C95.4036 38.0114 94.9112 38.3925 94.3004 38.6719C93.6896 38.9512 92.9273 39.0909 92.0135 39.0909Z" fill="#8200FA"/>
<path d="M111.9 20.4545H114.513V30.6818C114.509 31.6193 114.31 32.4266 113.917 33.1037C113.524 33.776 112.975 34.2945 112.269 34.6591C111.568 35.0189 110.752 35.1989 109.819 35.1989C108.967 35.1989 108.2 35.0473 107.518 34.7443C106.841 34.4366 106.303 33.982 105.906 33.3807C105.508 32.7794 105.309 32.0312 105.309 31.1364H107.93C107.934 31.5294 108.02 31.8679 108.185 32.152C108.356 32.4361 108.59 32.6539 108.888 32.8054C109.187 32.9569 109.53 33.0327 109.918 33.0327C110.34 33.0327 110.697 32.9451 110.991 32.7699C111.284 32.59 111.507 32.3248 111.658 31.9744C111.815 31.6241 111.895 31.1932 111.9 30.6818V20.4545ZM122.417 35.2131C121.352 35.2131 120.428 34.9787 119.647 34.5099C118.866 34.0412 118.26 33.3854 117.829 32.5426C117.403 31.6998 117.19 30.715 117.19 29.5881C117.19 28.4612 117.403 27.474 117.829 26.6264C118.26 25.7789 118.866 25.1207 119.647 24.652C120.428 24.1832 121.352 23.9489 122.417 23.9489C123.482 23.9489 124.406 24.1832 125.187 24.652C125.968 25.1207 126.572 25.7789 126.998 26.6264C127.429 27.474 127.644 28.4612 127.644 29.5881C127.644 30.715 127.429 31.6998 126.998 32.5426C126.572 33.3854 125.968 34.0412 125.187 34.5099C124.406 34.9787 123.482 35.2131 122.417 35.2131ZM122.431 33.1534C123.009 33.1534 123.492 32.9948 123.88 32.6776C124.268 32.3556 124.557 31.9247 124.747 31.3849C124.941 30.8452 125.038 30.2438 125.038 29.581C125.038 28.9134 124.941 28.3097 124.747 27.7699C124.557 27.2254 124.268 26.7921 123.88 26.4702C123.492 26.1482 123.009 25.9872 122.431 25.9872C121.839 25.9872 121.347 26.1482 120.954 26.4702C120.566 26.7921 120.275 27.2254 120.08 27.7699C119.891 28.3097 119.796 28.9134 119.796 29.581C119.796 30.2438 119.891 30.8452 120.08 31.3849C120.275 31.9247 120.566 32.3556 120.954 32.6776C121.347 32.9948 121.839 33.1534 122.431 33.1534ZM130.34 35V20.4545H132.911V25.8949H133.018C133.15 25.6297 133.337 25.348 133.579 25.0497C133.82 24.7467 134.147 24.4886 134.559 24.2756C134.971 24.0578 135.496 23.9489 136.136 23.9489C136.978 23.9489 137.738 24.1643 138.415 24.5952C139.097 25.0213 139.637 25.6534 140.035 26.4915C140.437 27.3248 140.638 28.3475 140.638 29.5597C140.638 30.7576 140.442 31.7756 140.049 32.6136C139.656 33.4517 139.121 34.0909 138.444 34.5312C137.767 34.9716 137 35.1918 136.143 35.1918C135.518 35.1918 134.999 35.0876 134.587 34.8793C134.175 34.6709 133.844 34.42 133.593 34.1264C133.347 33.8281 133.155 33.5464 133.018 33.2812H132.869V35H130.34ZM132.861 29.5455C132.861 30.2509 132.961 30.8688 133.16 31.3991C133.363 31.9295 133.655 32.3437 134.033 32.642C134.417 32.9356 134.881 33.0824 135.425 33.0824C135.994 33.0824 136.469 32.9309 136.853 32.6278C137.236 32.3201 137.525 31.901 137.719 31.3707C137.918 30.8357 138.018 30.2273 138.018 29.5455C138.018 28.8684 137.921 28.267 137.726 27.7415C137.532 27.2159 137.244 26.804 136.86 26.5057C136.476 26.2074 135.998 26.0582 135.425 26.0582C134.876 26.0582 134.41 26.2027 134.026 26.4915C133.643 26.7803 133.351 27.1851 133.153 27.706C132.958 28.2268 132.861 28.84 132.861 29.5455ZM151.846 26.9744L149.503 27.2301C149.436 26.9934 149.32 26.7708 149.155 26.5625C148.994 26.3542 148.776 26.1861 148.501 26.0582C148.227 25.9304 147.89 25.8665 147.493 25.8665C146.958 25.8665 146.508 25.9825 146.143 26.2145C145.783 26.4465 145.606 26.7472 145.611 27.1165C145.606 27.4337 145.722 27.6918 145.959 27.8906C146.2 28.0895 146.598 28.2528 147.152 28.3807L149.012 28.7784C150.045 29.0009 150.812 29.3537 151.314 29.8366C151.82 30.3196 152.076 30.9517 152.081 31.733C152.076 32.4195 151.875 33.0256 151.477 33.5511C151.084 34.072 150.537 34.4792 149.836 34.7727C149.136 35.0663 148.331 35.2131 147.422 35.2131C146.086 35.2131 145.012 34.9337 144.197 34.375C143.383 33.8116 142.897 33.0279 142.741 32.0241L145.248 31.7827C145.362 32.2751 145.603 32.6468 145.973 32.8977C146.342 33.1487 146.823 33.2741 147.414 33.2741C148.025 33.2741 148.515 33.1487 148.885 32.8977C149.259 32.6468 149.446 32.3366 149.446 31.9673C149.446 31.6548 149.325 31.3968 149.084 31.1932C148.847 30.9896 148.477 30.8333 147.976 30.7244L146.115 30.3338C145.068 30.116 144.294 29.7491 143.792 29.233C143.29 28.7121 143.042 28.054 143.047 27.2585C143.042 26.5862 143.224 26.0038 143.593 25.5114C143.968 25.0142 144.486 24.6307 145.149 24.3608C145.816 24.0862 146.586 23.9489 147.457 23.9489C148.736 23.9489 149.742 24.2211 150.476 24.7656C151.214 25.3101 151.671 26.0464 151.846 26.9744Z" fill="#8200FA"/>
</svg>
